<?xml version="1.0" encoding="UTF-8"?>
<svg version="1.1" xmlns="http://www.w3.org/2000/svg" width="128" height="128">
<path d="M0 0 C1.86332726 -0.0237545 1.86332726 -0.0237545 3.76429749 -0.04798889 C5.11427181 -0.04414446 6.46424317 -0.03910375 7.81420898 -0.03295898 C9.21321525 -0.0382012 10.61221798 -0.04447986 12.01121521 -0.05174255 C14.94416923 -0.0621414 17.8766381 -0.05760009 20.80957031 -0.04296875 C24.53615576 -0.02588499 28.26118414 -0.04914616 31.98759556 -0.08445835 C34.87993757 -0.10662764 37.77191926 -0.10494271 40.66431999 -0.09669304 C42.036007 -0.0958821 43.40772283 -0.10257848 44.7793293 -0.11746407 C59.49304075 -0.25254226 70.1657488 4.21145557 80.68139648 14.40844727 C91.71273326 26.17520649 94.43991127 40.38632722 94.04858398 55.99438477 C93.78386583 61.46222271 92.43208249 66.35038018 90.74780273 71.53344727 C88.65228429 78.94537362 90.67929486 82.98011965 94.30639648 89.61157227 C96.29110376 93.63477292 96.83090525 97.08746267 96.74780273 101.53344727 C96.73491211 102.2334082 96.72202148 102.93336914 96.70874023 103.65454102 C96.35368319 108.5973088 94.95902473 111.80148657 91.74780273 115.53344727 C86.55395007 118.89312113 82.15804644 118.94644227 76.18530273 118.86157227 C75.27578857 118.8596991 74.36627441 118.85782593 73.42919922 118.855896 C71.51290196 118.84919594 69.5966179 118.83532234 67.68041992 118.81469727 C64.75743795 118.78354994 61.83499677 118.77372162 58.91186523 118.76782227 C57.0446712 118.75865051 55.17748262 118.74827419 53.31030273 118.73657227 C52.44139404 118.73232239 51.57248535 118.72807251 50.67724609 118.72369385 C47.21375075 118.68316575 44.0034893 118.57998601 40.58764648 117.95825195 C37.09980341 117.43651477 34.22483373 117.98051704 30.74780273 118.53344727 C28.04187194 118.65636705 25.3603262 118.74347236 22.65405273 118.77172852 C21.90369751 118.77980026 21.15334229 118.78787201 20.38024902 118.79618835 C18.80373379 118.80993131 17.22719002 118.82069658 15.65063477 118.82861328 C14.04865716 118.84016992 12.44671915 118.86067965 10.8449707 118.89013672 C8.51023651 118.9329649 6.17663164 118.94899601 3.84155273 118.95922852 C3.13405884 118.9767366 2.42656494 118.99424469 1.69763184 119.01228333 C-3.34728846 118.99050178 -7.55249701 118.02141394 -11.25219727 114.53344727 C-15.24390529 108.92322287 -15.8327304 104.712972 -15.76977539 97.9296875 C-15.77678467 96.99220673 -15.78379395 96.05472595 -15.79101562 95.08883667 C-15.80854537 92.00626548 -15.79699143 88.92462068 -15.78344727 85.84204102 C-15.78614339 83.69165369 -15.79002681 81.54126756 -15.79504395 79.3908844 C-15.80093201 74.89116777 -15.79239725 70.3917694 -15.77368164 65.89208984 C-15.75087905 60.12954889 -15.76402825 54.36775264 -15.7879715 48.60523891 C-15.80243627 44.16736759 -15.79782053 39.7296724 -15.78746033 35.29179573 C-15.78479565 33.16715468 -15.78805367 31.04249755 -15.79737854 28.91787529 C-15.80755659 25.94742426 -15.79202553 22.97817425 -15.76977539 20.0078125 C-15.77787231 19.13335983 -15.78596924 18.25890717 -15.79431152 17.35795593 C-15.70044128 10.58102754 -13.7607492 7.02330857 -8.89295959 2.19178772 C-5.68719873 0.17864066 -3.76753573 0.02143188 0 0 Z " fill="#1653CC" transform="translate(25.252197265625,7.466552734375)"/>
<path d="M0 0 C1.86332726 -0.0237545 1.86332726 -0.0237545 3.76429749 -0.04798889 C5.11427181 -0.04414446 6.46424317 -0.03910375 7.81420898 -0.03295898 C9.21321525 -0.0382012 10.61221798 -0.04447986 12.01121521 -0.05174255 C14.94416923 -0.0621414 17.8766381 -0.05760009 20.80957031 -0.04296875 C24.53615576 -0.02588499 28.26118414 -0.04914616 31.98759556 -0.08445835 C34.87993757 -0.10662764 37.77191926 -0.10494271 40.66431999 -0.09669304 C42.036007 -0.0958821 43.40772283 -0.10257848 44.7793293 -0.11746407 C59.49304075 -0.25254226 70.1657488 4.21145557 80.68139648 14.40844727 C91.71273326 26.17520649 94.43991127 40.38632722 94.04858398 55.99438477 C93.78386583 61.46222271 92.43208249 66.35038018 90.74780273 71.53344727 C88.65228429 78.94537362 90.67929486 82.98011965 94.30639648 89.61157227 C96.29110376 93.63477292 96.83090525 97.08746267 96.74780273 101.53344727 C96.73491211 102.2334082 96.72202148 102.93336914 96.70874023 103.65454102 C96.35368319 108.5973088 94.95902473 111.80148657 91.74780273 115.53344727 C86.55395007 118.89312113 82.15804644 118.94644227 76.18530273 118.86157227 C75.27578857 118.8596991 74.36627441 118.85782593 73.42919922 118.855896 C71.51290196 118.84919594 69.5966179 118.83532234 67.68041992 118.81469727 C64.75743795 118.78354994 61.83499677 118.77372162 58.91186523 118.76782227 C57.0446712 118.75865051 55.17748262 118.74827419 53.31030273 118.73657227 C52.44139404 118.73232239 51.57248535 118.72807251 50.67724609 118.72369385 C47.21375075 118.68316575 44.0034893 118.57998601 40.58764648 117.95825195 C37.09980341 117.43651477 34.22483373 117.98051704 30.74780273 118.53344727 C28.04187194 118.65636705 25.3603262 118.74347236 22.65405273 118.77172852 C21.90369751 118.77980026 21.15334229 118.78787201 20.38024902 118.79618835 C18.80373379 118.80993131 17.22719002 118.82069658 15.65063477 118.82861328 C14.04865716 118.84016992 12.44671915 118.86067965 10.8449707 118.89013672 C8.51023651 118.9329649 6.17663164 118.94899601 3.84155273 118.95922852 C3.13405884 118.9767366 2.42656494 118.99424469 1.69763184 119.01228333 C-3.34728846 118.99050178 -7.55249701 118.02141394 -11.25219727 114.53344727 C-15.24390529 108.92322287 -15.8327304 104.712972 -15.76977539 97.9296875 C-15.77678467 96.99220673 -15.78379395 96.05472595 -15.79101562 95.08883667 C-15.80854537 92.00626548 -15.79699143 88.92462068 -15.78344727 85.84204102 C-15.78614339 83.69165369 -15.79002681 81.54126756 -15.79504395 79.3908844 C-15.80093201 74.89116777 -15.79239725 70.3917694 -15.77368164 65.89208984 C-15.75087905 60.12954889 -15.76402825 54.36775264 -15.7879715 48.60523891 C-15.80243627 44.16736759 -15.79782053 39.7296724 -15.78746033 35.29179573 C-15.78479565 33.16715468 -15.78805367 31.04249755 -15.79737854 28.91787529 C-15.80755659 25.94742426 -15.79202553 22.97817425 -15.76977539 20.0078125 C-15.77787231 19.13335983 -15.78596924 18.25890717 -15.79431152 17.35795593 C-15.70044128 10.58102754 -13.7607492 7.02330857 -8.89295959 2.19178772 C-5.68719873 0.17864066 -3.76753573 0.02143188 0 0 Z M-1.25219727 7.53344727 C-1.54094727 8.17282227 -1.82969727 8.81219727 -2.12719727 9.47094727 C-3.25219727 11.53344727 -3.25219727 11.53344727 -5.25219727 12.53344727 C-5.16790607 24.08590723 -5.07306665 35.63822744 -4.96467018 47.19048786 C-4.91467349 52.55437433 -4.86834375 57.91824078 -4.83032227 63.28222656 C-4.79351208 68.4564593 -4.74716378 73.63052589 -4.69413376 78.80461693 C-4.67556709 80.78098836 -4.66046758 82.75739544 -4.6488533 84.73381996 C-4.63202971 87.49703701 -4.60300422 90.25987165 -4.57104492 93.02294922 C-4.56888474 93.84437912 -4.56672455 94.66580902 -4.5644989 95.51213074 C-4.50735301 99.36665586 -4.43986181 101.25195045 -2.25219727 104.53344727 C0.26651638 104.83815355 2.53579705 104.95368623 5.05639648 104.93188477 C6.14018333 104.93619003 6.14018333 104.93619003 7.24586487 104.94058228 C8.77492048 104.94262483 10.3040021 104.93708154 11.83300781 104.92456055 C14.17304055 104.90853126 16.51134008 104.92438904 18.85131836 104.94360352 C20.33634821 104.94162066 21.82137699 104.9377761 23.30639648 104.93188477 C24.35651161 104.9409938 24.35651161 104.9409938 25.42784119 104.95028687 C28.3056045 104.90867616 30.27858106 104.8593187 32.6809082 103.19091797 C34.31093396 100.6585965 34.27535675 98.3209426 34.43530273 95.34594727 C34.53391602 93.71592773 34.53391602 93.71592773 34.63452148 92.05297852 C34.6719043 91.2215332 34.70928711 90.39008789 34.74780273 89.53344727 C35.40780273 89.53344727 36.06780273 89.53344727 36.74780273 89.53344727 C37.31370117 90.5324707 37.87959961 91.53149414 38.46264648 92.56079102 C39.20344694 93.86422472 39.94433699 95.16760751 40.68530273 96.47094727 C41.05848633 97.13030273 41.43166992 97.7896582 41.81616211 98.46899414 C43.51743086 101.69177559 43.51743086 101.69177559 45.74780273 104.53344727 C48.45164698 104.6592784 51.1285607 104.72210661 53.83374023 104.73657227 C54.64646393 104.74227234 55.45918762 104.74797241 56.29653931 104.75384521 C58.01986381 104.7633096 59.74320653 104.76983489 61.46655273 104.77368164 C64.10489489 104.78338143 66.74245633 104.81438798 69.38061523 104.84594727 C71.05248559 104.85247762 72.72436154 104.85772796 74.39624023 104.86157227 C75.18694916 104.87391907 75.97765808 104.88626587 76.79232788 104.89898682 C81.00841375 104.90667557 81.00841375 104.90667557 84.76928711 103.20996094 C86.55303606 100.1538222 85.61674175 97.85090823 84.74780273 94.53344727 C82.83549493 90.76853557 80.4883102 87.28313084 78.16577148 83.76196289 C74.73838523 78.30662459 74.73838523 78.30662459 74.78686523 74.32641602 C75.74963537 71.52812071 76.8436255 69.0127062 78.24780273 66.40844727 C83.0945924 57.36298516 83.09842262 46.1476258 81.06420898 36.18579102 C78.28041015 27.97300689 73.19118067 21.26089432 66.74780273 15.53344727 C66.08780273 15.53344727 65.42780273 15.53344727 64.74780273 15.53344727 C64.74780273 14.87344727 64.74780273 14.21344727 64.74780273 13.53344727 C63.39652017 12.90223591 62.04158226 12.27884892 60.68530273 11.65844727 C59.55415039 11.13637695 59.55415039 11.13637695 58.40014648 10.60375977 C51.10751081 7.66092888 44.95022183 7.26177147 37.12670898 7.33813477 C35.47686256 7.34237961 35.47686256 7.34237961 33.79368591 7.34671021 C30.2991117 7.35785747 26.80479879 7.38295228 23.31030273 7.40844727 C20.93335332 7.4184841 18.55639988 7.42760872 16.17944336 7.43579102 C10.36880813 7.45777895 4.55832411 7.49120217 -1.25219727 7.53344727 Z " fill="#040404" transform="translate(25.252197265625,7.466552734375)"/>
<path d="M0 0 C2.20980835 -0.39440918 2.20980835 -0.39440918 4.99365234 -0.41992188 C6.03588959 -0.43583374 7.07812683 -0.45174561 8.15194702 -0.46813965 C9.28516388 -0.46834106 10.41838074 -0.46854248 11.5859375 -0.46875 C12.75323395 -0.47636353 13.9205304 -0.48397705 15.12319946 -0.49182129 C17.6031073 -0.50265067 20.08306086 -0.50546396 22.56298828 -0.50097656 C26.32534295 -0.50001272 30.08560083 -0.54142784 33.84765625 -0.5859375 C36.26041244 -0.59115102 38.67317568 -0.59383259 41.0859375 -0.59375 C42.19891205 -0.61014526 43.3118866 -0.62654053 44.45858765 -0.64343262 C56.15192554 -0.54209569 65.41900324 3.43258995 73.8046875 11.53515625 C81.22711356 19.86887661 84.39741548 28.67557214 84.375 39.75 C84.37367065 40.93372192 84.37367065 40.93372192 84.37231445 42.14135742 C84.221192 49.63841187 82.66471577 56.20814009 78.30078125 62.41796875 C76.54788724 65.89743704 76.8363805 67.288144 78 71 C79.97222666 74.68253133 82.27486398 78.15545841 84.58203125 81.63476562 C86.97894289 85.45677517 88.01170452 87.33869485 87.9296875 91.97265625 C87.46949219 93.47119141 87.46949219 93.47119141 87 95 C82.10999626 97.44500187 74.80039198 96.48091185 69.37060547 96.56982422 C67.63022309 96.60646726 65.89012141 96.66102347 64.15087891 96.73388672 C49.69097571 97.33031306 49.69097571 97.33031306 45.55615234 94.07739258 C43.98980709 91.74971522 42.95818647 89.62871997 42 87 C41.38602349 85.80676319 40.76270726 84.61822465 40.125 83.4375 C39.75375 82.633125 39.3825 81.82875 39 81 C38.34 81 37.68 81 37 81 C36.96261719 81.83144531 36.92523438 82.66289063 36.88671875 83.51953125 C36.78810547 85.14955078 36.78810547 85.14955078 36.6875 86.8125 C36.60048828 88.43091797 36.60048828 88.43091797 36.51171875 90.08203125 C36 93 36 93 34.93310547 94.6574707 C31.99843998 96.69557699 29.00576573 96.42833939 25.55859375 96.3984375 C24.47337181 96.40274277 24.47337181 96.40274277 23.3662262 96.40713501 C21.83895076 96.40917427 20.31164913 96.40365392 18.78442383 96.39111328 C16.44228025 96.37503282 14.10185608 96.39097693 11.75976562 96.41015625 C10.27603785 96.40817425 8.79231114 96.40433146 7.30859375 96.3984375 C6.60649277 96.40451019 5.90439178 96.41058289 5.18101501 96.4168396 C3.20874023 96.38818359 3.20874023 96.38818359 0 96 C-2.57943456 92.13084816 -2.28077383 88.93118996 -2.25878906 84.4453125 C-2.2622937 83.57187195 -2.26579834 82.6984314 -2.26940918 81.79852295 C-2.27822185 78.90726812 -2.27237896 76.01625738 -2.265625 73.125 C-2.26697178 71.11865186 -2.26891243 69.11230405 -2.27142334 67.10595703 C-2.27437397 62.89938248 -2.27007888 58.69289282 -2.26074219 54.48632812 C-2.24934772 49.08901208 -2.25590751 43.69189493 -2.26788712 38.29458618 C-2.27510733 34.15110775 -2.27281704 30.00767662 -2.26763153 25.86419678 C-2.26629548 23.87384009 -2.26794119 21.88347914 -2.27259064 19.89312744 C-2.27765848 17.11353139 -2.26994196 14.33425937 -2.25878906 11.5546875 C-2.26283752 10.72862 -2.26688599 9.90255249 -2.27105713 9.05145264 C-2.2422038 5.17820209 -2.1987846 3.2981769 0 0 Z M9 11 C9 35.42 9 59.84 9 85 C14.28 85 19.56 85 25 85 C25 79.72 25 74.44 25 69 C31.93 69 38.86 69 46 69 C48 75 48 75 48.875 77.7734375 C50.26035295 80.97706619 51.27559045 82.76857884 54 85 C59.88414985 86.28882861 66.05981125 85.56039516 72 85 C70.56347895 80.08558588 68.45840385 75.99761642 65.875 71.625 C65.50246094 70.98433594 65.12992188 70.34367187 64.74609375 69.68359375 C63.83565998 68.11951523 62.91851809 66.55934466 62 65 C62.38671875 64.5875 62.7734375 64.175 63.171875 63.75 C71.01290339 55.05499822 73.4486674 47.25741226 73.33984375 35.61328125 C72.61601047 27.91735268 68.74244738 21.69662996 63.02598572 16.58270264 C56.46720609 11.4589756 49.83258886 10.42111595 41.71484375 10.609375 C40.46048523 10.61541748 40.46048523 10.61541748 39.18078613 10.62158203 C36.09946297 10.64228552 33.01845609 10.69812857 29.9375 10.75 C23.028125 10.8325 16.11875 10.915 9 11 Z " fill="#F9FAFC" transform="translate(23,16)"/>
<path d="M0 0 C5.754375 -0.12375 5.754375 -0.12375 11.625 -0.25 C12.82334473 -0.28641602 14.02168945 -0.32283203 15.25634766 -0.36035156 C21.45542453 -0.42489275 25.40724129 -0.36388369 30 4 C32.75778028 8.02143176 32.52260645 12.29654192 32 17 C30.2992498 21.83371108 28.54909568 23.75599522 24 26 C21.22924805 26.34057617 21.22924805 26.34057617 18.26171875 26.29296875 C17.29967529 26.28547607 16.33763184 26.2779834 15.34643555 26.27026367 C14.13898682 26.24295166 12.93153809 26.21563965 11.6875 26.1875 C5.9021875 26.0946875 5.9021875 26.0946875 0 26 C0 17.42 0 8.84 0 0 Z " fill="#FCFDFE" transform="translate(48,43)"/>
<path d="M0 0 C5.66442374 0.36504064 10.00703705 1.0554321 15 4 C14.34 4.66 13.68 5.32 13 6 C11.96875 5.54625 10.9375 5.0925 9.875 4.625 C6.63562492 3.23292639 3.36260307 2.06619122 0 1 C0 0.67 0 0.34 0 0 Z " fill="#222222" transform="translate(72,14)"/>
<path d="M0 0 C0.99 0.33 1.98 0.66 3 1 C2.67 1.66 2.34 2.32 2 3 C1.77377919 4.70363822 1.59111527 6.41328701 1.4375 8.125 C1.35371094 9.03507812 1.26992188 9.94515625 1.18359375 10.8828125 C1.12300781 11.58148438 1.06242187 12.28015625 1 13 C0.67 13 0.34 13 0 13 C0 8.71 0 4.42 0 0 Z " fill="#1F1F1F" transform="translate(60,96)"/>
</svg>
